<svg width="50" height="50" viewBox="0 0 50 50" fill="none" xmlns="http://www.w3.org/2000/svg">
<path d="M16.6667 22.9167H33.3333V27.0833H16.6667V22.9167ZM41.875 25H45.8333C45.8333 19.25 41.1667 14.5833 35.4167 14.5833H27.0833V18.5417H35.4167C38.9792 18.5417 41.875 21.4375 41.875 25ZM8.125 25C8.125 21.4375 11.0208 18.5417 14.5833 18.5417H22.9167V14.5833H14.5833C8.83333 14.5833 4.16667 19.25 4.16667 25C4.16667 30.75 8.83333 35.4167 14.5833 35.4167H22.9167V31.4583H14.5833C11.0208 31.4583 8.125 28.5625 8.125 25ZM39.5833 25H35.4167V31.25H29.1667V35.4167H35.4167V41.6667H39.5833V35.4167H45.8333V31.25H39.5833V25Z" fill="black"/>
</svg>
