<svg width="280" height="280" viewBox="0 0 280 280" fill="none" xmlns="http://www.w3.org/2000/svg">
<path d="M105.001 35L83.6507 58.3333H46.6673C33.834 58.3333 23.334 68.8333 23.334 81.6667V221.667C23.334 234.5 33.834 245 46.6673 245H233.334C246.167 245 256.667 234.5 256.667 221.667V81.6667C256.667 68.8333 246.167 58.3333 233.334 58.3333H196.351L175.001 35H105.001ZM140.001 210C107.801 210 81.6673 183.867 81.6673 151.667C81.6673 119.467 107.801 93.3333 140.001 93.3333C172.201 93.3333 198.334 119.467 198.334 151.667C198.334 183.867 172.201 210 140.001 210Z" fill="white"/>
<path d="M140.001 198.333L154.584 166.25L186.667 151.667L154.584 137.083L140.001 105L125.417 137.083L93.334 151.667L125.417 166.25L140.001 198.333Z" fill="white"/>
</svg>
