<svg width="79" height="11" viewBox="0 0 79 11" fill="none" xmlns="http://www.w3.org/2000/svg">
<path d="M0.867188 10L1.54688 1.41602H4.4707L5.74805 5.875L6.08203 7.46875H6.19922L6.5625 5.875L7.83398 1.41602H10.9453L11.625 10H9.39258L9.11133 4.22266L9.09961 2.67578H8.95898L8.5957 4.17578L6.95508 9.83008H5.0625L3.41016 4.1875L3.03516 2.67578H2.90039L2.88867 4.21094L2.61914 10H0.867188ZM18.8027 9.34961C18.5918 9.49805 18.375 9.62305 18.1523 9.72461C17.9336 9.82227 17.7148 9.90039 17.4961 9.95898C17.2773 10.0176 17.0625 10.0586 16.8516 10.082C16.6406 10.1055 16.4375 10.1172 16.2422 10.1172C15.7422 10.1172 15.291 10.0508 14.8887 9.91797C14.4863 9.78125 14.1445 9.58594 13.8633 9.33203C13.582 9.07812 13.3652 8.76562 13.2129 8.39453C13.0645 8.02344 12.9902 7.59961 12.9902 7.12305C12.9902 6.58398 13.084 6.10156 13.2715 5.67578C13.459 5.24609 13.709 4.88477 14.0215 4.5918C14.3379 4.29492 14.7031 4.06836 15.1172 3.91211C15.5312 3.75195 15.9648 3.67188 16.418 3.67188C16.8086 3.67188 17.168 3.73242 17.4961 3.85352C17.8281 3.97461 18.1133 4.1543 18.3516 4.39258C18.5938 4.62695 18.7812 4.91992 18.9141 5.27148C19.0469 5.61914 19.1133 6.02148 19.1133 6.47852C19.1133 6.62695 19.1055 6.76367 19.0898 6.88867C19.0781 7.01367 19.0625 7.11719 19.043 7.19922H15.082C15.082 7.47266 15.1289 7.70703 15.2227 7.90234C15.3203 8.09766 15.457 8.25977 15.6328 8.38867C15.8125 8.51367 16.0273 8.60547 16.2773 8.66406C16.5273 8.72266 16.8066 8.75195 17.1152 8.75195C17.2246 8.75195 17.3457 8.74805 17.4785 8.74023C17.6152 8.73242 17.7559 8.71875 17.9004 8.69922C18.0488 8.67578 18.1992 8.64844 18.3516 8.61719C18.5039 8.58203 18.6543 8.53711 18.8027 8.48242V9.34961ZM17.2676 6.48438C17.2676 6.21484 17.2402 5.98242 17.1855 5.78711C17.1348 5.5918 17.0625 5.43164 16.9688 5.30664C16.875 5.17773 16.7637 5.08398 16.6348 5.02539C16.5059 4.96289 16.3652 4.93164 16.2129 4.93164C16.0449 4.93164 15.8906 4.9668 15.75 5.03711C15.6133 5.10742 15.4941 5.20898 15.3926 5.3418C15.2949 5.47461 15.2188 5.63672 15.1641 5.82812C15.1094 6.01953 15.082 6.23828 15.082 6.48438H17.2676ZM21.0117 5.04883H19.7637L19.8926 4.1875C20.0996 4.11328 20.2793 4.04297 20.4316 3.97656C20.584 3.91016 20.7168 3.83984 20.8301 3.76562C20.9473 3.6875 21.0488 3.60352 21.1348 3.51367C21.2246 3.42383 21.3086 3.31836 21.3867 3.19727C21.4688 3.07227 21.5508 2.93164 21.6328 2.77539C21.7148 2.61914 21.8086 2.43555 21.9141 2.22461H22.9219V3.78906H25.1191L24.832 5.04883H23.0449V7.70312C23.0449 8.08984 23.1445 8.36133 23.3438 8.51758C23.5469 8.67383 23.8359 8.75195 24.2109 8.75195C24.3594 8.75195 24.5098 8.74023 24.6621 8.7168C24.8184 8.68945 24.9688 8.64648 25.1133 8.58789V9.46094C24.8086 9.68359 24.4727 9.84961 24.1055 9.95898C23.7422 10.0645 23.3789 10.1172 23.0156 10.1172C22.6562 10.1172 22.3496 10.0684 22.0957 9.9707C21.8418 9.86914 21.6348 9.72461 21.4746 9.53711C21.3145 9.34961 21.1973 9.12305 21.123 8.85742C21.0488 8.5918 21.0117 8.29297 21.0117 7.96094V5.04883ZM29.8711 9.10352C29.7539 9.20117 29.6211 9.30859 29.4727 9.42578C29.3242 9.54297 29.1621 9.6543 28.9863 9.75977C28.8105 9.86133 28.623 9.94531 28.4238 10.0117C28.2246 10.082 28.0137 10.1172 27.791 10.1172C27.5215 10.1172 27.2852 10.0664 27.082 9.96484C26.8789 9.85938 26.709 9.72266 26.5723 9.55469C26.4395 9.38672 26.3379 9.19727 26.2676 8.98633C26.2012 8.77539 26.168 8.56445 26.168 8.35352C26.168 8.06445 26.2324 7.79297 26.3613 7.53906C26.4941 7.28516 26.6992 7.06445 26.9766 6.87695C27.2539 6.68555 27.6074 6.53516 28.0371 6.42578C28.4668 6.31641 28.9785 6.26172 29.5723 6.26172H29.8008V5.89844C29.8008 5.58203 29.7031 5.3418 29.5078 5.17773C29.3125 5.01367 29.0508 4.93164 28.7227 4.93164C28.5781 4.93164 28.4258 4.94922 28.2656 4.98438C28.1094 5.01953 27.9512 5.06836 27.791 5.13086C27.6309 5.18945 27.4746 5.25977 27.3223 5.3418C27.1699 5.42383 27.0273 5.51172 26.8945 5.60547L26.7891 5.54688L26.4434 4.31055C26.9473 4.07617 27.4238 3.91211 27.873 3.81836C28.3223 3.7207 28.7637 3.67188 29.1973 3.67188C29.5684 3.67188 29.9141 3.70703 30.2344 3.77734C30.5586 3.84766 30.8379 3.96289 31.0723 4.12305C31.3105 4.2793 31.498 4.48438 31.6348 4.73828C31.7715 4.99219 31.8398 5.30469 31.8398 5.67578V8.17188C31.8398 8.24219 31.8457 8.3125 31.8574 8.38281C31.8691 8.44922 31.8906 8.50977 31.9219 8.56445C31.9531 8.61914 31.9961 8.66406 32.0508 8.69922C32.1055 8.73438 32.1758 8.75195 32.2617 8.75195C32.3164 8.75195 32.3691 8.74805 32.4199 8.74023C32.4746 8.73242 32.5352 8.71484 32.6016 8.6875V9.55469C32.3477 9.73047 32.0938 9.86914 31.8398 9.9707C31.5859 10.0684 31.3398 10.1172 31.1016 10.1172C30.793 10.1172 30.5391 10.0293 30.3398 9.85352C30.1406 9.67773 29.9844 9.42773 29.8711 9.10352ZM29.8008 6.97656H29.5781C29.2695 6.97656 29.0137 7 28.8105 7.04688C28.6113 7.08984 28.4512 7.15234 28.3301 7.23438C28.2129 7.31641 28.1309 7.41602 28.084 7.5332C28.0371 7.64648 28.0137 7.77539 28.0137 7.91992C28.0137 8.06836 28.0352 8.19531 28.0781 8.30078C28.1211 8.40234 28.1777 8.48828 28.248 8.55859C28.3223 8.625 28.4062 8.67383 28.5 8.70508C28.5977 8.73633 28.6992 8.75195 28.8047 8.75195C28.9492 8.75195 29.1035 8.72266 29.2676 8.66406C29.4355 8.60156 29.6133 8.49219 29.8008 8.33594V6.97656ZM33.6914 10L34.3711 1.41602H37.2949L38.5723 5.875L38.9062 7.46875H39.0234L39.3867 5.875L40.6582 1.41602H43.7695L44.4492 10H42.2168L41.9355 4.22266L41.9238 2.67578H41.7832L41.4199 4.17578L39.7793 9.83008H37.8867L36.2344 4.1875L35.8594 2.67578H35.7246L35.7129 4.21094L35.4434 10H33.6914ZM49.5352 9.10352C49.418 9.20117 49.2852 9.30859 49.1367 9.42578C48.9883 9.54297 48.8262 9.6543 48.6504 9.75977C48.4746 9.86133 48.2871 9.94531 48.0879 10.0117C47.8887 10.082 47.6777 10.1172 47.4551 10.1172C47.1855 10.1172 46.9492 10.0664 46.7461 9.96484C46.543 9.85938 46.373 9.72266 46.2363 9.55469C46.1035 9.38672 46.002 9.19727 45.9316 8.98633C45.8652 8.77539 45.832 8.56445 45.832 8.35352C45.832 8.06445 45.8965 7.79297 46.0254 7.53906C46.1582 7.28516 46.3633 7.06445 46.6406 6.87695C46.918 6.68555 47.2715 6.53516 47.7012 6.42578C48.1309 6.31641 48.6426 6.26172 49.2363 6.26172H49.4648V5.89844C49.4648 5.58203 49.3672 5.3418 49.1719 5.17773C48.9766 5.01367 48.7148 4.93164 48.3867 4.93164C48.2422 4.93164 48.0898 4.94922 47.9297 4.98438C47.7734 5.01953 47.6152 5.06836 47.4551 5.13086C47.2949 5.18945 47.1387 5.25977 46.9863 5.3418C46.834 5.42383 46.6914 5.51172 46.5586 5.60547L46.4531 5.54688L46.1074 4.31055C46.6113 4.07617 47.0879 3.91211 47.5371 3.81836C47.9863 3.7207 48.4277 3.67188 48.8613 3.67188C49.2324 3.67188 49.5781 3.70703 49.8984 3.77734C50.2227 3.84766 50.502 3.96289 50.7363 4.12305C50.9746 4.2793 51.1621 4.48438 51.2988 4.73828C51.4355 4.99219 51.5039 5.30469 51.5039 5.67578V8.17188C51.5039 8.24219 51.5098 8.3125 51.5215 8.38281C51.5332 8.44922 51.5547 8.50977 51.5859 8.56445C51.6172 8.61914 51.6602 8.66406 51.7148 8.69922C51.7695 8.73438 51.8398 8.75195 51.9258 8.75195C51.9805 8.75195 52.0332 8.74805 52.084 8.74023C52.1387 8.73242 52.1992 8.71484 52.2656 8.6875V9.55469C52.0117 9.73047 51.7578 9.86914 51.5039 9.9707C51.25 10.0684 51.0039 10.1172 50.7656 10.1172C50.457 10.1172 50.2031 10.0293 50.0039 9.85352C49.8047 9.67773 49.6484 9.42773 49.5352 9.10352ZM49.4648 6.97656H49.2422C48.9336 6.97656 48.6777 7 48.4746 7.04688C48.2754 7.08984 48.1152 7.15234 47.9941 7.23438C47.877 7.31641 47.7949 7.41602 47.748 7.5332C47.7012 7.64648 47.6777 7.77539 47.6777 7.91992C47.6777 8.06836 47.6992 8.19531 47.7422 8.30078C47.7852 8.40234 47.8418 8.48828 47.9121 8.55859C47.9863 8.625 48.0703 8.67383 48.1641 8.70508C48.2617 8.73633 48.3633 8.75195 48.4688 8.75195C48.6133 8.75195 48.7676 8.72266 48.9316 8.66406C49.0996 8.60156 49.2773 8.49219 49.4648 8.33594V6.97656ZM53.3613 3.78906H55.0781L55.3242 5.61133C55.3867 5.49805 55.4492 5.38281 55.5117 5.26562C55.5781 5.14844 55.6387 5.04102 55.6934 4.94336C55.752 4.8418 55.8027 4.75391 55.8457 4.67969C55.8926 4.60547 55.9258 4.55078 55.9453 4.51562C56.0195 4.39453 56.1035 4.2832 56.1973 4.18164C56.291 4.07617 56.3945 3.98633 56.5078 3.91211C56.6211 3.83789 56.748 3.7793 56.8887 3.73633C57.0293 3.69336 57.1855 3.67188 57.3574 3.67188C57.4707 3.67188 57.5938 3.6875 57.7266 3.71875C57.8633 3.74609 57.9883 3.79297 58.1016 3.85938L57.8789 5.6875C57.8438 5.67969 57.7969 5.67383 57.7383 5.66992C57.6797 5.66211 57.6172 5.65625 57.5508 5.65234C57.4883 5.64844 57.4258 5.64648 57.3633 5.64648C57.3047 5.64258 57.252 5.64062 57.2051 5.64062C56.8105 5.64062 56.457 5.7168 56.1445 5.86914C55.8359 6.02148 55.5859 6.2168 55.3945 6.45508V10H53.3613V3.78906ZM59.3262 0.613281H61.3594V10H59.3262V0.613281ZM63.4512 10L61.5938 6.80078L63.8262 3.8418H65.707L63.5156 6.46094L65.8418 10H63.4512ZM72.1816 9.34961C71.9707 9.49805 71.7539 9.62305 71.5312 9.72461C71.3125 9.82227 71.0938 9.90039 70.875 9.95898C70.6562 10.0176 70.4414 10.0586 70.2305 10.082C70.0195 10.1055 69.8164 10.1172 69.6211 10.1172C69.1211 10.1172 68.6699 10.0508 68.2676 9.91797C67.8652 9.78125 67.5234 9.58594 67.2422 9.33203C66.9609 9.07812 66.7441 8.76562 66.5918 8.39453C66.4434 8.02344 66.3691 7.59961 66.3691 7.12305C66.3691 6.58398 66.4629 6.10156 66.6504 5.67578C66.8379 5.24609 67.0879 4.88477 67.4004 4.5918C67.7168 4.29492 68.082 4.06836 68.4961 3.91211C68.9102 3.75195 69.3438 3.67188 69.7969 3.67188C70.1875 3.67188 70.5469 3.73242 70.875 3.85352C71.207 3.97461 71.4922 4.1543 71.7305 4.39258C71.9727 4.62695 72.1602 4.91992 72.293 5.27148C72.4258 5.61914 72.4922 6.02148 72.4922 6.47852C72.4922 6.62695 72.4844 6.76367 72.4688 6.88867C72.457 7.01367 72.4414 7.11719 72.4219 7.19922H68.4609C68.4609 7.47266 68.5078 7.70703 68.6016 7.90234C68.6992 8.09766 68.8359 8.25977 69.0117 8.38867C69.1914 8.51367 69.4062 8.60547 69.6562 8.66406C69.9062 8.72266 70.1855 8.75195 70.4941 8.75195C70.6035 8.75195 70.7246 8.74805 70.8574 8.74023C70.9941 8.73242 71.1348 8.71875 71.2793 8.69922C71.4277 8.67578 71.5781 8.64844 71.7305 8.61719C71.8828 8.58203 72.0332 8.53711 72.1816 8.48242V9.34961ZM70.6465 6.48438C70.6465 6.21484 70.6191 5.98242 70.5645 5.78711C70.5137 5.5918 70.4414 5.43164 70.3477 5.30664C70.2539 5.17773 70.1426 5.08398 70.0137 5.02539C69.8848 4.96289 69.7441 4.93164 69.5918 4.93164C69.4238 4.93164 69.2695 4.9668 69.1289 5.03711C68.9922 5.10742 68.873 5.20898 68.7715 5.3418C68.6738 5.47461 68.5977 5.63672 68.543 5.82812C68.4883 6.01953 68.4609 6.23828 68.4609 6.48438H70.6465ZM74.3906 5.04883H73.1426L73.2715 4.1875C73.4785 4.11328 73.6582 4.04297 73.8105 3.97656C73.9629 3.91016 74.0957 3.83984 74.209 3.76562C74.3262 3.6875 74.4277 3.60352 74.5137 3.51367C74.6035 3.42383 74.6875 3.31836 74.7656 3.19727C74.8477 3.07227 74.9297 2.93164 75.0117 2.77539C75.0938 2.61914 75.1875 2.43555 75.293 2.22461H76.3008V3.78906H78.498L78.2109 5.04883H76.4238V7.70312C76.4238 8.08984 76.5234 8.36133 76.7227 8.51758C76.9258 8.67383 77.2148 8.75195 77.5898 8.75195C77.7383 8.75195 77.8887 8.74023 78.041 8.7168C78.1973 8.68945 78.3477 8.64648 78.4922 8.58789V9.46094C78.1875 9.68359 77.8516 9.84961 77.4844 9.95898C77.1211 10.0645 76.7578 10.1172 76.3945 10.1172C76.0352 10.1172 75.7285 10.0684 75.4746 9.9707C75.2207 9.86914 75.0137 9.72461 74.8535 9.53711C74.6934 9.34961 74.5762 9.12305 74.502 8.85742C74.4277 8.5918 74.3906 8.29297 74.3906 7.96094V5.04883Z" fill="#007bff"/>
</svg>
