<svg width="336" height="36" viewBox="0 0 336 36" fill="#0065F2" xmlns="http://www.w3.org/2000/svg">
<g filter="url(#filter0_i_6_7)">
<path d="M12.76 29.48C8.76 29.48 5.64 28.3733 3.4 26.16C1.18667 23.9467 0.0800003 20.7867 0.0800003 16.68V0.999998H6.56V16.44C6.56 21.4533 8.64 23.96 12.8 23.96C14.8267 23.96 16.3733 23.36 17.44 22.16C18.5067 20.9333 19.04 19.0267 19.04 16.44V0.999998H25.44V16.68C25.44 20.7867 24.32 23.9467 22.08 26.16C19.8667 28.3733 16.76 29.48 12.76 29.48ZM57.5234 0.999998V29H52.2034L38.2434 12V29H31.8434V0.999998H37.2034L51.1234 18V0.999998H57.5234ZM64.1481 0.999998H70.6281V29H64.1481V0.999998ZM107.553 32C106.646 33.12 105.54 33.9733 104.233 34.56C102.953 35.1467 101.54 35.44 99.9931 35.44C97.9131 35.44 96.0331 34.9867 94.3531 34.08C92.6731 33.2 90.7531 31.6267 88.5931 29.36C86.0598 29.04 83.7931 28.2267 81.7931 26.92C79.8198 25.6133 78.2731 23.9333 77.1531 21.88C76.0598 19.8 75.5131 17.5067 75.5131 15C75.5131 12.2533 76.1665 9.78667 77.4731 7.6C78.8065 5.38667 80.6331 3.65333 82.9531 2.4C85.2998 1.14667 87.9265 0.52 90.8331 0.52C93.7398 0.52 96.3531 1.14667 98.6731 2.4C100.993 3.65333 102.82 5.38667 104.153 7.6C105.486 9.78667 106.153 12.2533 106.153 15C106.153 18.2533 105.233 21.1067 103.393 23.56C101.58 26.0133 99.1665 27.72 96.1531 28.68C96.8198 29.3733 97.4598 29.8667 98.0731 30.16C98.7131 30.48 99.3931 30.64 100.113 30.64C101.846 30.64 103.366 29.9467 104.673 28.56L107.553 32ZM82.0731 15C82.0731 16.7333 82.4465 18.28 83.1931 19.64C83.9665 21 85.0198 22.0667 86.3531 22.84C87.6865 23.5867 89.1798 23.96 90.8331 23.96C92.4865 23.96 93.9798 23.5867 95.3131 22.84C96.6465 22.0667 97.6865 21 98.4331 19.64C99.2065 18.28 99.5931 16.7333 99.5931 15C99.5931 13.2667 99.2065 11.72 98.4331 10.36C97.6865 9 96.6465 7.94667 95.3131 7.2C93.9798 6.42667 92.4865 6.04 90.8331 6.04C89.1798 6.04 87.6865 6.42667 86.3531 7.2C85.0198 7.94667 83.9665 9 83.1931 10.36C82.4465 11.72 82.0731 13.2667 82.0731 15ZM123.463 29.48C119.463 29.48 116.343 28.3733 114.103 26.16C111.89 23.9467 110.783 20.7867 110.783 16.68V0.999998H117.263V16.44C117.263 21.4533 119.343 23.96 123.503 23.96C125.53 23.96 127.076 23.36 128.143 22.16C129.21 20.9333 129.743 19.0267 129.743 16.44V0.999998H136.143V16.68C136.143 20.7867 135.023 23.9467 132.783 26.16C130.57 28.3733 127.463 29.48 123.463 29.48ZM164.227 23.8V29H142.547V0.999998H163.707V6.2H148.987V12.28H161.987V17.32H148.987V23.8H164.227ZM186.511 6.28H177.551V0.999998H201.951V6.28H192.991V29H186.511V6.28ZM231.117 0.999998V29H224.637V17.52H211.917V29H205.437V0.999998H211.917V12.04H224.637V0.999998H231.117ZM237.742 0.999998H244.222V29H237.742V0.999998ZM276.547 0.999998V29H271.227L257.267 12V29H250.867V0.999998H256.227L270.147 18V0.999998H276.547ZM302.092 14.56H308.012V25.92C306.492 27.0667 304.732 27.9467 302.732 28.56C300.732 29.1733 298.718 29.48 296.692 29.48C293.785 29.48 291.172 28.8667 288.852 27.64C286.532 26.3867 284.705 24.6667 283.372 22.48C282.065 20.2667 281.412 17.7733 281.412 15C281.412 12.2267 282.065 9.74667 283.372 7.56C284.705 5.34667 286.545 3.62667 288.892 2.4C291.238 1.14667 293.878 0.52 296.812 0.52C299.265 0.52 301.492 0.933332 303.492 1.76C305.492 2.58666 307.172 3.78667 308.532 5.36L304.372 9.2C302.372 7.09333 299.958 6.04 297.132 6.04C295.345 6.04 293.758 6.41333 292.372 7.16C290.985 7.90667 289.905 8.96 289.132 10.32C288.358 11.68 287.972 13.24 287.972 15C287.972 16.7333 288.358 18.28 289.132 19.64C289.905 21 290.972 22.0667 292.332 22.84C293.718 23.5867 295.292 23.96 297.052 23.96C298.918 23.96 300.598 23.56 302.092 22.76V14.56ZM323.231 29.48C321.018 29.48 318.871 29.1867 316.791 28.6C314.738 27.9867 313.084 27.2 311.831 26.24L314.031 21.36C315.231 22.24 316.658 22.9467 318.311 23.48C319.964 24.0133 321.618 24.28 323.271 24.28C325.111 24.28 326.471 24.0133 327.351 23.48C328.231 22.92 328.671 22.1867 328.671 21.28C328.671 20.6133 328.404 20.0667 327.871 19.64C327.364 19.1867 326.698 18.8267 325.871 18.56C325.071 18.2933 323.978 18 322.591 17.68C320.458 17.1733 318.711 16.6667 317.351 16.16C315.991 15.6533 314.818 14.84 313.831 13.72C312.871 12.6 312.391 11.1067 312.391 9.24C312.391 7.61333 312.831 6.14667 313.711 4.84C314.591 3.50667 315.911 2.45333 317.671 1.68C319.458 0.906666 321.631 0.52 324.191 0.52C325.978 0.52 327.724 0.733332 329.431 1.16C331.138 1.58667 332.631 2.2 333.911 3L331.911 7.92C329.324 6.45333 326.738 5.72 324.151 5.72C322.338 5.72 320.991 6.01333 320.111 6.6C319.258 7.18667 318.831 7.96 318.831 8.92C318.831 9.88 319.324 10.6 320.311 11.08C321.324 11.5333 322.858 11.9867 324.911 12.44C327.044 12.9467 328.791 13.4533 330.151 13.96C331.511 14.4667 332.671 15.2667 333.631 16.36C334.618 17.4533 335.111 18.9333 335.111 20.8C335.111 22.4 334.658 23.8667 333.751 25.2C332.871 26.5067 331.538 27.5467 329.751 28.32C327.964 29.0933 325.791 29.48 323.231 29.48Z"/>
</g>
<defs>
<filter id="filter0_i_6_7" x="0.0800171" y="0.519989" width="335.031" height="38.92" filterUnits="userSpaceOnUse" color-interpolation-filters="sRGB">
<feFlood flood-opacity="0" result="BackgroundImageFix"/>
<feBlend mode="normal" in="SourceGraphic" in2="BackgroundImageFix" result="shape"/>
<feColorMatrix in="SourceAlpha" type="matrix" values="0 0 0 0 0 0 0 0 0 0 0 0 0 0 0 0 0 0 127 0" result="hardAlpha"/>
<feOffset dy="4"/>
<feGaussianBlur stdDeviation="10"/>
<feComposite in2="hardAlpha" operator="arithmetic" k2="-1" k3="1"/>
<feColorMatrix type="matrix" values="0 0 0 0 0 0 0 0 0 0 0 0 0 0 0 0 0 0 0.25 0"/>
<feBlend mode="normal" in2="shape" result="effect1_innerShadow_6_7"/>
</filter>
</defs>
</svg>
