<svg width="280" height="280" viewBox="0 0 280 280" fill="none" xmlns="http://www.w3.org/2000/svg">
<path d="M35 128.333H128.333V35H35V128.333ZM58.3333 58.3333H105V105H58.3333V58.3333Z" fill="white"/>
<path d="M35 245H128.333V151.667H35V245ZM58.3333 175H105V221.667H58.3333V175Z" fill="white"/>
<path d="M151.666 35V128.333H244.999V35H151.666ZM221.666 105H174.999V58.3333H221.666V105Z" fill="white"/>
<path d="M244.999 221.667H221.666V245H244.999V221.667Z" fill="white"/>
<path d="M174.999 151.667H151.666V175H174.999V151.667Z" fill="white"/>
<path d="M198.333 175H175V198.333H198.333V175Z" fill="white"/>
<path d="M174.999 198.333H151.666V221.667H174.999V198.333Z" fill="white"/>
<path d="M198.333 221.667H175V245H198.333V221.667Z" fill="white"/>
<path d="M221.667 198.333H198.334V221.667H221.667V198.333Z" fill="white"/>
<path d="M221.667 151.667H198.334V175H221.667V151.667Z" fill="white"/>
<path d="M244.999 175H221.666V198.333H244.999V175Z" fill="white"/>
</svg>
