<svg width="50" height="50" viewBox="0 0 50 50" fill="none" xmlns="http://www.w3.org/2000/svg">
<path d="M35 32.0321C33.7333 32.0321 32.6 32.5442 31.7333 33.3464L19.85 26.2631C19.9333 25.8705 20 25.4779 20 25.0683C20 24.6586 19.9333 24.2661 19.85 23.8735L31.6 16.8584C32.5 17.7118 33.6833 18.241 35 18.241C37.7667 18.241 40 15.9538 40 13.1205C40 10.2871 37.7667 8 35 8C32.2333 8 30 10.2871 30 13.1205C30 13.5301 30.0667 13.9227 30.15 14.3153L18.4 21.3303C17.5 20.4769 16.3167 19.9478 15 19.9478C12.2333 19.9478 10 22.2349 10 25.0683C10 27.9016 12.2333 30.1888 15 30.1888C16.3167 30.1888 17.5 29.6596 18.4 28.8062L30.2667 35.9066C30.1833 36.2651 30.1333 36.6406 30.1333 37.0161C30.1333 39.7641 32.3167 42 35 42C37.6833 42 39.8667 39.7641 39.8667 37.0161C39.8667 34.2681 37.6833 32.0321 35 32.0321Z" fill="#333333"/>
</svg>
