<svg width="35" height="23" viewBox="0 0 35 23" fill="none" xmlns="http://www.w3.org/2000/svg">
<path d="M21.875 11.5C21.875 13.8862 19.9208 15.8125 17.5 15.8125C15.0792 15.8125 13.125 13.8862 13.125 11.5C13.125 9.11375 15.0792 7.1875 17.5 7.1875C19.9208 7.1875 21.875 9.11375 21.875 11.5ZM17.5 0C9.5375 0 2.74167 4.7725 0 11.5C2.74167 18.2275 9.5375 23 17.5 23C25.4625 23 32.2583 18.2275 35 11.5C32.2583 4.7725 25.4625 0 17.5 0ZM17.5 18.6875C13.475 18.6875 10.2083 15.4675 10.2083 11.5C10.2083 7.5325 13.475 4.3125 17.5 4.3125C21.525 4.3125 24.7917 7.5325 24.7917 11.5C24.7917 15.4675 21.525 18.6875 17.5 18.6875Z" fill="#333333"/>
</svg>
